<svg xmlns="http://www.w3.org/2000/svg" xmlns:xlink="http://www.w3.org/1999/xlink" width="500" zoomAndPan="magnify" viewBox="0 0 375 374.999991" height="500" preserveAspectRatio="xMidYMid meet" version="1.0"><defs><g/><clipPath id="f3f61d33f1"><path d="M 10.445312 10.445312 L 368.976562 10.445312 L 368.976562 368.976562 L 10.445312 368.976562 Z M 10.445312 10.445312 " clip-rule="nonzero"/></clipPath><clipPath id="11ed0031a5"><path d="M 189.710938 10.445312 C 90.707031 10.445312 10.445312 90.707031 10.445312 189.710938 C 10.445312 288.71875 90.707031 368.976562 189.710938 368.976562 C 288.71875 368.976562 368.976562 288.71875 368.976562 189.710938 C 368.976562 90.707031 288.71875 10.445312 189.710938 10.445312 Z M 189.710938 10.445312 " clip-rule="nonzero"/></clipPath><radialGradient gradientTransform="matrix(1, 0, 0, 1, 10.446918, 10.4469)" gradientUnits="userSpaceOnUse" r="253.518474" cx="179.264965" id="95541e05f8" cy="179.264965" fx="179.264965" fy="179.264965"><stop stop-opacity="1" stop-color="rgb(2.789307%, 2.488708%, 7.267761%)" offset="0"/><stop stop-opacity="1" stop-color="rgb(2.92511%, 2.624512%, 7.519531%)" offset="0.0078125"/><stop stop-opacity="1" stop-color="rgb(3.016663%, 2.714539%, 7.688904%)" offset="0.0117188"/><stop stop-opacity="1" stop-color="rgb(3.106689%, 2.804565%, 7.85675%)" offset="0.015625"/><stop stop-opacity="1" stop-color="rgb(3.196716%, 2.894592%, 8.024597%)" offset="0.0195312"/><stop stop-opacity="1" stop-color="rgb(3.288269%, 2.984619%, 8.19397%)" offset="0.0234375"/><stop stop-opacity="1" stop-color="rgb(3.378296%, 3.074646%, 8.361816%)" offset="0.0273438"/><stop stop-opacity="1" stop-color="rgb(3.469849%, 3.166199%, 8.529663%)" offset="0.03125"/><stop stop-opacity="1" stop-color="rgb(3.559875%, 3.256226%, 8.699036%)" offset="0.0351562"/><stop stop-opacity="1" stop-color="rgb(3.649902%, 3.346252%, 8.866882%)" offset="0.0390625"/><stop stop-opacity="1" stop-color="rgb(3.741455%, 3.436279%, 9.034729%)" offset="0.0429688"/><stop stop-opacity="1" stop-color="rgb(3.831482%, 3.526306%, 9.204102%)" offset="0.046875"/><stop stop-opacity="1" stop-color="rgb(3.921509%, 3.616333%, 9.371948%)" offset="0.0507812"/><stop stop-opacity="1" stop-color="rgb(4.013062%, 3.70636%, 9.539795%)" offset="0.0546875"/><stop stop-opacity="1" stop-color="rgb(4.103088%, 3.797913%, 9.709167%)" offset="0.0585938"/><stop stop-opacity="1" stop-color="rgb(4.194641%, 3.887939%, 9.877014%)" offset="0.0625"/><stop stop-opacity="1" stop-color="rgb(4.284668%, 3.977966%, 10.044861%)" offset="0.0664062"/><stop stop-opacity="1" stop-color="rgb(4.374695%, 4.067993%, 10.214233%)" offset="0.0703125"/><stop stop-opacity="1" stop-color="rgb(4.466248%, 4.15802%, 10.38208%)" offset="0.0742188"/><stop stop-opacity="1" stop-color="rgb(4.556274%, 4.248047%, 10.549927%)" offset="0.078125"/><stop stop-opacity="1" stop-color="rgb(4.647827%, 4.338074%, 10.719299%)" offset="0.0820312"/><stop stop-opacity="1" stop-color="rgb(4.737854%, 4.428101%, 10.887146%)" offset="0.0859375"/><stop stop-opacity="1" stop-color="rgb(4.827881%, 4.519653%, 11.054993%)" offset="0.0898438"/><stop stop-opacity="1" stop-color="rgb(4.919434%, 4.60968%, 11.224365%)" offset="0.09375"/><stop stop-opacity="1" stop-color="rgb(5.00946%, 4.699707%, 11.392212%)" offset="0.0976562"/><stop stop-opacity="1" stop-color="rgb(5.101013%, 4.789734%, 11.560059%)" offset="0.101562"/><stop stop-opacity="1" stop-color="rgb(5.19104%, 4.879761%, 11.729431%)" offset="0.105469"/><stop stop-opacity="1" stop-color="rgb(5.281067%, 4.969788%, 11.897278%)" offset="0.109375"/><stop stop-opacity="1" stop-color="rgb(5.37262%, 5.059814%, 12.065125%)" offset="0.113281"/><stop stop-opacity="1" stop-color="rgb(5.462646%, 5.151367%, 12.234497%)" offset="0.117188"/><stop stop-opacity="1" stop-color="rgb(5.554199%, 5.241394%, 12.402344%)" offset="0.121094"/><stop stop-opacity="1" stop-color="rgb(5.644226%, 5.331421%, 12.57019%)" offset="0.125"/><stop stop-opacity="1" stop-color="rgb(5.734253%, 5.421448%, 12.739563%)" offset="0.128906"/><stop stop-opacity="1" stop-color="rgb(5.825806%, 5.511475%, 12.90741%)" offset="0.132812"/><stop stop-opacity="1" stop-color="rgb(5.915833%, 5.601501%, 13.075256%)" offset="0.136719"/><stop stop-opacity="1" stop-color="rgb(6.005859%, 5.691528%, 13.244629%)" offset="0.140625"/><stop stop-opacity="1" stop-color="rgb(6.097412%, 5.783081%, 13.412476%)" offset="0.144531"/><stop stop-opacity="1" stop-color="rgb(6.187439%, 5.873108%, 13.580322%)" offset="0.148438"/><stop stop-opacity="1" stop-color="rgb(6.278992%, 5.963135%, 13.749695%)" offset="0.152344"/><stop stop-opacity="1" stop-color="rgb(6.369019%, 6.053162%, 13.917542%)" offset="0.15625"/><stop stop-opacity="1" stop-color="rgb(6.459045%, 6.143188%, 14.085388%)" offset="0.160156"/><stop stop-opacity="1" stop-color="rgb(6.550598%, 6.233215%, 14.254761%)" offset="0.164062"/><stop stop-opacity="1" stop-color="rgb(6.640625%, 6.323242%, 14.422607%)" offset="0.167969"/><stop stop-opacity="1" stop-color="rgb(6.732178%, 6.413269%, 14.590454%)" offset="0.171875"/><stop stop-opacity="1" stop-color="rgb(6.822205%, 6.504822%, 14.759827%)" offset="0.175781"/><stop stop-opacity="1" stop-color="rgb(6.912231%, 6.594849%, 14.927673%)" offset="0.179688"/><stop stop-opacity="1" stop-color="rgb(7.003784%, 6.684875%, 15.09552%)" offset="0.183594"/><stop stop-opacity="1" stop-color="rgb(7.093811%, 6.774902%, 15.264893%)" offset="0.1875"/><stop stop-opacity="1" stop-color="rgb(7.185364%, 6.864929%, 15.432739%)" offset="0.191406"/><stop stop-opacity="1" stop-color="rgb(7.275391%, 6.954956%, 15.600586%)" offset="0.195312"/><stop stop-opacity="1" stop-color="rgb(7.365417%, 7.044983%, 15.769958%)" offset="0.199219"/><stop stop-opacity="1" stop-color="rgb(7.45697%, 7.136536%, 15.937805%)" offset="0.203125"/><stop stop-opacity="1" stop-color="rgb(7.546997%, 7.226562%, 16.105652%)" offset="0.207031"/><stop stop-opacity="1" stop-color="rgb(7.63855%, 7.316589%, 16.275024%)" offset="0.210938"/><stop stop-opacity="1" stop-color="rgb(7.728577%, 7.406616%, 16.442871%)" offset="0.214844"/><stop stop-opacity="1" stop-color="rgb(7.818604%, 7.496643%, 16.610718%)" offset="0.21875"/><stop stop-opacity="1" stop-color="rgb(7.910156%, 7.58667%, 16.78009%)" offset="0.222656"/><stop stop-opacity="1" stop-color="rgb(8.000183%, 7.676697%, 16.947937%)" offset="0.226562"/><stop stop-opacity="1" stop-color="rgb(8.09021%, 7.76825%, 17.115784%)" offset="0.230469"/><stop stop-opacity="1" stop-color="rgb(8.181763%, 7.858276%, 17.285156%)" offset="0.234375"/><stop stop-opacity="1" stop-color="rgb(8.27179%, 7.948303%, 17.453003%)" offset="0.238281"/><stop stop-opacity="1" stop-color="rgb(8.363342%, 8.03833%, 17.62085%)" offset="0.242188"/><stop stop-opacity="1" stop-color="rgb(8.453369%, 8.128357%, 17.790222%)" offset="0.246094"/><stop stop-opacity="1" stop-color="rgb(8.543396%, 8.218384%, 17.958069%)" offset="0.25"/><stop stop-opacity="1" stop-color="rgb(8.679199%, 8.354187%, 18.209839%)" offset="0.253906"/><stop stop-opacity="1" stop-color="rgb(8.860779%, 8.534241%, 18.547058%)" offset="0.261719"/><stop stop-opacity="1" stop-color="rgb(9.042358%, 8.71582%, 18.884277%)" offset="0.269531"/><stop stop-opacity="1" stop-color="rgb(9.223938%, 8.895874%, 19.219971%)" offset="0.277344"/><stop stop-opacity="1" stop-color="rgb(9.405518%, 9.075928%, 19.55719%)" offset="0.285156"/><stop stop-opacity="1" stop-color="rgb(9.585571%, 9.257507%, 19.894409%)" offset="0.292969"/><stop stop-opacity="1" stop-color="rgb(9.767151%, 9.437561%, 20.230103%)" offset="0.300781"/><stop stop-opacity="1" stop-color="rgb(9.94873%, 9.617615%, 20.567322%)" offset="0.308594"/><stop stop-opacity="1" stop-color="rgb(10.13031%, 9.797668%, 20.904541%)" offset="0.316406"/><stop stop-opacity="1" stop-color="rgb(10.31189%, 9.979248%, 21.240234%)" offset="0.324219"/><stop stop-opacity="1" stop-color="rgb(10.491943%, 10.159302%, 21.577454%)" offset="0.332031"/><stop stop-opacity="1" stop-color="rgb(10.673523%, 10.339355%, 21.914673%)" offset="0.339844"/><stop stop-opacity="1" stop-color="rgb(10.855103%, 10.519409%, 22.250366%)" offset="0.347656"/><stop stop-opacity="1" stop-color="rgb(11.036682%, 10.700989%, 22.587585%)" offset="0.355469"/><stop stop-opacity="1" stop-color="rgb(11.216736%, 10.881042%, 22.924805%)" offset="0.363281"/><stop stop-opacity="1" stop-color="rgb(11.398315%, 11.061096%, 23.260498%)" offset="0.371094"/><stop stop-opacity="1" stop-color="rgb(11.579895%, 11.242676%, 23.597717%)" offset="0.378906"/><stop stop-opacity="1" stop-color="rgb(11.761475%, 11.422729%, 23.934937%)" offset="0.386719"/><stop stop-opacity="1" stop-color="rgb(11.943054%, 11.602783%, 24.27063%)" offset="0.394531"/><stop stop-opacity="1" stop-color="rgb(12.123108%, 11.782837%, 24.607849%)" offset="0.402344"/><stop stop-opacity="1" stop-color="rgb(12.304688%, 11.964417%, 24.945068%)" offset="0.410156"/><stop stop-opacity="1" stop-color="rgb(12.486267%, 12.14447%, 25.282288%)" offset="0.417969"/><stop stop-opacity="1" stop-color="rgb(12.667847%, 12.324524%, 25.617981%)" offset="0.425781"/><stop stop-opacity="1" stop-color="rgb(12.8479%, 12.504578%, 25.9552%)" offset="0.433594"/><stop stop-opacity="1" stop-color="rgb(13.02948%, 12.686157%, 26.292419%)" offset="0.441406"/><stop stop-opacity="1" stop-color="rgb(13.21106%, 12.866211%, 26.628113%)" offset="0.449219"/><stop stop-opacity="1" stop-color="rgb(13.392639%, 13.046265%, 26.965332%)" offset="0.457031"/><stop stop-opacity="1" stop-color="rgb(13.574219%, 13.227844%, 27.302551%)" offset="0.464844"/><stop stop-opacity="1" stop-color="rgb(13.754272%, 13.407898%, 27.638245%)" offset="0.472656"/><stop stop-opacity="1" stop-color="rgb(13.935852%, 13.587952%, 27.975464%)" offset="0.480469"/><stop stop-opacity="1" stop-color="rgb(14.117432%, 13.768005%, 28.312683%)" offset="0.488281"/><stop stop-opacity="1" stop-color="rgb(14.299011%, 13.949585%, 28.648376%)" offset="0.496094"/><stop stop-opacity="1" stop-color="rgb(14.434814%, 14.083862%, 28.901672%)" offset="0.503906"/><stop stop-opacity="1" stop-color="rgb(14.524841%, 14.173889%, 29.069519%)" offset="0.507812"/><stop stop-opacity="1" stop-color="rgb(14.616394%, 14.263916%, 29.238892%)" offset="0.511719"/><stop stop-opacity="1" stop-color="rgb(14.706421%, 14.353943%, 29.406738%)" offset="0.515625"/><stop stop-opacity="1" stop-color="rgb(14.797974%, 14.445496%, 29.574585%)" offset="0.519531"/><stop stop-opacity="1" stop-color="rgb(14.888%, 14.535522%, 29.743958%)" offset="0.523438"/><stop stop-opacity="1" stop-color="rgb(14.978027%, 14.625549%, 29.911804%)" offset="0.527344"/><stop stop-opacity="1" stop-color="rgb(15.06958%, 14.715576%, 30.079651%)" offset="0.53125"/><stop stop-opacity="1" stop-color="rgb(15.159607%, 14.805603%, 30.249023%)" offset="0.535156"/><stop stop-opacity="1" stop-color="rgb(15.249634%, 14.89563%, 30.41687%)" offset="0.539062"/><stop stop-opacity="1" stop-color="rgb(15.341187%, 14.985657%, 30.584717%)" offset="0.542969"/><stop stop-opacity="1" stop-color="rgb(15.431213%, 15.077209%, 30.754089%)" offset="0.546875"/><stop stop-opacity="1" stop-color="rgb(15.522766%, 15.167236%, 30.921936%)" offset="0.550781"/><stop stop-opacity="1" stop-color="rgb(15.612793%, 15.257263%, 31.089783%)" offset="0.554688"/><stop stop-opacity="1" stop-color="rgb(15.70282%, 15.34729%, 31.259155%)" offset="0.558594"/><stop stop-opacity="1" stop-color="rgb(15.794373%, 15.437317%, 31.427002%)" offset="0.5625"/><stop stop-opacity="1" stop-color="rgb(15.884399%, 15.527344%, 31.594849%)" offset="0.566406"/><stop stop-opacity="1" stop-color="rgb(15.975952%, 15.617371%, 31.764221%)" offset="0.570312"/><stop stop-opacity="1" stop-color="rgb(16.065979%, 15.707397%, 31.932068%)" offset="0.574219"/><stop stop-opacity="1" stop-color="rgb(16.156006%, 15.79895%, 32.099915%)" offset="0.578125"/><stop stop-opacity="1" stop-color="rgb(16.247559%, 15.888977%, 32.269287%)" offset="0.582031"/><stop stop-opacity="1" stop-color="rgb(16.337585%, 15.979004%, 32.437134%)" offset="0.585938"/><stop stop-opacity="1" stop-color="rgb(16.429138%, 16.069031%, 32.60498%)" offset="0.589844"/><stop stop-opacity="1" stop-color="rgb(16.519165%, 16.159058%, 32.774353%)" offset="0.59375"/><stop stop-opacity="1" stop-color="rgb(16.609192%, 16.249084%, 32.9422%)" offset="0.597656"/><stop stop-opacity="1" stop-color="rgb(16.700745%, 16.339111%, 33.110046%)" offset="0.601562"/><stop stop-opacity="1" stop-color="rgb(16.790771%, 16.430664%, 33.279419%)" offset="0.605469"/><stop stop-opacity="1" stop-color="rgb(16.882324%, 16.520691%, 33.447266%)" offset="0.609375"/><stop stop-opacity="1" stop-color="rgb(16.972351%, 16.610718%, 33.615112%)" offset="0.613281"/><stop stop-opacity="1" stop-color="rgb(17.062378%, 16.700745%, 33.784485%)" offset="0.617188"/><stop stop-opacity="1" stop-color="rgb(17.153931%, 16.790771%, 33.952332%)" offset="0.621094"/><stop stop-opacity="1" stop-color="rgb(17.243958%, 16.880798%, 34.120178%)" offset="0.625"/><stop stop-opacity="1" stop-color="rgb(17.379761%, 17.016602%, 34.373474%)" offset="0.628906"/><stop stop-opacity="1" stop-color="rgb(17.56134%, 17.198181%, 34.709167%)" offset="0.636719"/><stop stop-opacity="1" stop-color="rgb(17.74292%, 17.378235%, 35.046387%)" offset="0.644531"/><stop stop-opacity="1" stop-color="rgb(17.922974%, 17.558289%, 35.383606%)" offset="0.652344"/><stop stop-opacity="1" stop-color="rgb(18.104553%, 17.738342%, 35.719299%)" offset="0.660156"/><stop stop-opacity="1" stop-color="rgb(18.286133%, 17.919922%, 36.056519%)" offset="0.667969"/><stop stop-opacity="1" stop-color="rgb(18.467712%, 18.099976%, 36.393738%)" offset="0.675781"/><stop stop-opacity="1" stop-color="rgb(18.649292%, 18.280029%, 36.729431%)" offset="0.683594"/><stop stop-opacity="1" stop-color="rgb(18.829346%, 18.460083%, 37.06665%)" offset="0.691406"/><stop stop-opacity="1" stop-color="rgb(19.010925%, 18.641663%, 37.40387%)" offset="0.699219"/><stop stop-opacity="1" stop-color="rgb(19.192505%, 18.821716%, 37.739563%)" offset="0.707031"/><stop stop-opacity="1" stop-color="rgb(19.374084%, 19.00177%, 38.076782%)" offset="0.714844"/><stop stop-opacity="1" stop-color="rgb(19.554138%, 19.18335%, 38.414001%)" offset="0.722656"/><stop stop-opacity="1" stop-color="rgb(19.735718%, 19.363403%, 38.749695%)" offset="0.730469"/><stop stop-opacity="1" stop-color="rgb(19.917297%, 19.543457%, 39.086914%)" offset="0.738281"/><stop stop-opacity="1" stop-color="rgb(20.098877%, 19.723511%, 39.424133%)" offset="0.746094"/><stop stop-opacity="1" stop-color="rgb(20.23468%, 19.859314%, 39.675903%)" offset="0.753906"/><stop stop-opacity="1" stop-color="rgb(20.324707%, 19.949341%, 39.845276%)" offset="0.757812"/><stop stop-opacity="1" stop-color="rgb(20.41626%, 20.039368%, 40.013123%)" offset="0.761719"/><stop stop-opacity="1" stop-color="rgb(20.506287%, 20.129395%, 40.180969%)" offset="0.765625"/><stop stop-opacity="1" stop-color="rgb(20.597839%, 20.219421%, 40.350342%)" offset="0.769531"/><stop stop-opacity="1" stop-color="rgb(20.687866%, 20.309448%, 40.518188%)" offset="0.773438"/><stop stop-opacity="1" stop-color="rgb(20.777893%, 20.401001%, 40.686035%)" offset="0.777344"/><stop stop-opacity="1" stop-color="rgb(20.869446%, 20.491028%, 40.855408%)" offset="0.78125"/><stop stop-opacity="1" stop-color="rgb(20.959473%, 20.581055%, 41.023254%)" offset="0.785156"/><stop stop-opacity="1" stop-color="rgb(21.051025%, 20.671082%, 41.191101%)" offset="0.789062"/><stop stop-opacity="1" stop-color="rgb(21.141052%, 20.761108%, 41.360474%)" offset="0.792969"/><stop stop-opacity="1" stop-color="rgb(21.231079%, 20.851135%, 41.52832%)" offset="0.796875"/><stop stop-opacity="1" stop-color="rgb(21.322632%, 20.941162%, 41.696167%)" offset="0.800781"/><stop stop-opacity="1" stop-color="rgb(21.412659%, 21.032715%, 41.86554%)" offset="0.804688"/><stop stop-opacity="1" stop-color="rgb(21.504211%, 21.122742%, 42.033386%)" offset="0.808594"/><stop stop-opacity="1" stop-color="rgb(21.594238%, 21.212769%, 42.201233%)" offset="0.8125"/><stop stop-opacity="1" stop-color="rgb(21.730042%, 21.348572%, 42.454529%)" offset="0.816406"/><stop stop-opacity="1" stop-color="rgb(21.911621%, 21.528625%, 42.790222%)" offset="0.824219"/><stop stop-opacity="1" stop-color="rgb(22.091675%, 21.708679%, 43.127441%)" offset="0.832031"/><stop stop-opacity="1" stop-color="rgb(22.273254%, 21.890259%, 43.464661%)" offset="0.839844"/><stop stop-opacity="1" stop-color="rgb(22.454834%, 22.070312%, 43.800354%)" offset="0.847656"/><stop stop-opacity="1" stop-color="rgb(22.636414%, 22.250366%, 44.137573%)" offset="0.855469"/><stop stop-opacity="1" stop-color="rgb(22.817993%, 22.43042%, 44.474792%)" offset="0.863281"/><stop stop-opacity="1" stop-color="rgb(22.998047%, 22.612%, 44.810486%)" offset="0.871094"/><stop stop-opacity="1" stop-color="rgb(23.135376%, 22.746277%, 45.063782%)" offset="0.878906"/><stop stop-opacity="1" stop-color="rgb(23.225403%, 22.836304%, 45.231628%)" offset="0.882812"/><stop stop-opacity="1" stop-color="rgb(23.31543%, 22.926331%, 45.401001%)" offset="0.886719"/><stop stop-opacity="1" stop-color="rgb(23.406982%, 23.017883%, 45.568848%)" offset="0.890625"/><stop stop-opacity="1" stop-color="rgb(23.497009%, 23.10791%, 45.73822%)" offset="0.894531"/><stop stop-opacity="1" stop-color="rgb(23.588562%, 23.197937%, 45.906067%)" offset="0.898438"/><stop stop-opacity="1" stop-color="rgb(23.678589%, 23.287964%, 46.073914%)" offset="0.902344"/><stop stop-opacity="1" stop-color="rgb(23.768616%, 23.377991%, 46.243286%)" offset="0.90625"/><stop stop-opacity="1" stop-color="rgb(23.904419%, 23.513794%, 46.495056%)" offset="0.910156"/><stop stop-opacity="1" stop-color="rgb(24.085999%, 23.693848%, 46.832275%)" offset="0.917969"/><stop stop-opacity="1" stop-color="rgb(24.267578%, 23.875427%, 47.167969%)" offset="0.925781"/><stop stop-opacity="1" stop-color="rgb(24.449158%, 24.055481%, 47.505188%)" offset="0.933594"/><stop stop-opacity="1" stop-color="rgb(24.584961%, 24.189758%, 47.758484%)" offset="0.941406"/><stop stop-opacity="1" stop-color="rgb(24.674988%, 24.279785%, 47.926331%)" offset="0.945312"/><stop stop-opacity="1" stop-color="rgb(24.766541%, 24.371338%, 48.094177%)" offset="0.949219"/><stop stop-opacity="1" stop-color="rgb(24.856567%, 24.461365%, 48.26355%)" offset="0.953125"/><stop stop-opacity="1" stop-color="rgb(24.992371%, 24.597168%, 48.51532%)" offset="0.957031"/><stop stop-opacity="1" stop-color="rgb(25.17395%, 24.777222%, 48.852539%)" offset="0.964844"/><stop stop-opacity="1" stop-color="rgb(25.309753%, 24.911499%, 49.104309%)" offset="0.972656"/><stop stop-opacity="1" stop-color="rgb(25.39978%, 25.003052%, 49.273682%)" offset="0.976562"/><stop stop-opacity="1" stop-color="rgb(25.535583%, 25.138855%, 49.525452%)" offset="0.980469"/><stop stop-opacity="1" stop-color="rgb(25.672913%, 25.273132%, 49.778748%)" offset="0.988281"/><stop stop-opacity="1" stop-color="rgb(25.808716%, 25.408936%, 50.030518%)" offset="0.992188"/><stop stop-opacity="1" stop-color="rgb(25.898743%, 25.498962%, 50.19989%)" offset="1"/></radialGradient><clipPath id="479d2d38da"><path d="M 110.8125 189 L 129 189 L 129 216 L 110.8125 216 Z M 110.8125 189 " clip-rule="nonzero"/></clipPath><clipPath id="23ab70c4a8"><path d="M 191 191 L 208.3125 191 L 208.3125 218 L 191 218 Z M 191 191 " clip-rule="nonzero"/></clipPath><clipPath id="97c2bc2337"><path d="M 120 194 L 198 194 L 198 223.179688 L 120 223.179688 Z M 120 194 " clip-rule="nonzero"/></clipPath></defs><g clip-path="url(#f3f61d33f1)"><g clip-path="url(#11ed0031a5)"><path fill="url(#95541e05f8)" d="M 10.445312 10.445312 L 10.445312 368.976562 L 368.976562 368.976562 L 368.976562 10.445312 Z M 10.445312 10.445312 " fill-rule="nonzero"/></g></g><g fill="#004aad" fill-opacity="1"><g transform="translate(29.67753, 220.555895)"><g><path d="M 15.140625 -50.109375 C 13.429688 -49.566406 12.40625 -48.613281 12.0625 -47.25 C 11.726562 -45.882812 11.5625 -44.453125 11.5625 -42.953125 L 11.5625 -6.953125 C 11.5625 -4.222656 11.21875 -1.425781 10.53125 1.4375 C 9.851562 4.300781 8.8125 6.992188 7.40625 9.515625 C 6.007812 12.035156 4.253906 14.210938 2.140625 16.046875 C 0.0351562 17.890625 -2.484375 19.117188 -5.421875 19.734375 L -5.421875 19.21875 C -2.691406 18.40625 -0.523438 17.023438 1.078125 15.078125 C 2.679688 13.140625 3.90625 10.941406 4.75 8.484375 C 5.601562 6.035156 6.148438 3.445312 6.390625 0.71875 C 6.628906 -2.007812 6.75 -4.566406 6.75 -6.953125 L 6.75 -42.03125 C 6.75 -42.78125 6.726562 -43.582031 6.6875 -44.4375 C 6.65625 -45.289062 6.519531 -46.09375 6.28125 -46.84375 C 6.050781 -47.59375 5.695312 -48.253906 5.21875 -48.828125 C 4.738281 -49.410156 4.054688 -49.835938 3.171875 -50.109375 Z M 15.140625 -50.109375 "/></g></g></g><g fill="#004aad" fill-opacity="1"><g transform="translate(47.674516, 220.555895)"><g><path d="M 54.203125 -25.0625 C 54.203125 -21.582031 53.535156 -18.304688 52.203125 -15.234375 C 50.878906 -12.171875 49.070312 -9.492188 46.78125 -7.203125 C 44.5 -4.921875 41.820312 -3.113281 38.75 -1.78125 C 35.6875 -0.457031 32.414062 0.203125 28.9375 0.203125 C 25.457031 0.203125 22.179688 -0.457031 19.109375 -1.78125 C 16.046875 -3.113281 13.375 -4.921875 11.09375 -7.203125 C 8.8125 -9.492188 7.003906 -12.171875 5.671875 -15.234375 C 4.347656 -18.304688 3.6875 -21.582031 3.6875 -25.0625 C 3.6875 -28.53125 4.347656 -31.796875 5.671875 -34.859375 C 7.003906 -37.929688 8.8125 -40.609375 11.09375 -42.890625 C 13.375 -45.179688 16.046875 -46.988281 19.109375 -48.3125 C 22.179688 -49.644531 25.457031 -50.3125 28.9375 -50.3125 C 32.414062 -50.3125 35.6875 -49.644531 38.75 -48.3125 C 41.820312 -46.988281 44.5 -45.179688 46.78125 -42.890625 C 49.070312 -40.609375 50.878906 -37.929688 52.203125 -34.859375 C 53.535156 -31.796875 54.203125 -28.53125 54.203125 -25.0625 Z M 9.3125 -26.28125 C 9.3125 -23.414062 9.800781 -20.445312 10.78125 -17.375 C 11.769531 -14.3125 13.164062 -11.535156 14.96875 -9.046875 C 16.78125 -6.554688 18.984375 -4.507812 21.578125 -2.90625 C 24.171875 -1.3125 27.066406 -0.515625 30.265625 -0.515625 C 33.265625 -0.515625 35.90625 -1.226562 38.1875 -2.65625 C 40.476562 -4.09375 42.40625 -5.9375 43.96875 -8.1875 C 45.539062 -10.4375 46.734375 -12.941406 47.546875 -15.703125 C 48.367188 -18.460938 48.78125 -21.171875 48.78125 -23.828125 C 48.78125 -26.753906 48.300781 -29.734375 47.34375 -32.765625 C 46.394531 -35.804688 45.015625 -38.570312 43.203125 -41.0625 C 41.398438 -43.550781 39.203125 -45.578125 36.609375 -47.140625 C 34.015625 -48.710938 31.082031 -49.5 27.8125 -49.5 C 24.882812 -49.5 22.257812 -48.78125 19.9375 -47.34375 C 17.625 -45.914062 15.679688 -44.078125 14.109375 -41.828125 C 12.546875 -39.578125 11.351562 -37.085938 10.53125 -34.359375 C 9.71875 -31.628906 9.3125 -28.9375 9.3125 -26.28125 Z M 9.3125 -26.28125 "/></g></g></g><g fill="#939090" fill-opacity="1"><g transform="translate(105.448994, 220.555895)"><g/></g></g><g fill="#939090" fill-opacity="1"><g transform="translate(126.820413, 220.555895)"><g/></g></g><g fill="#939090" fill-opacity="1"><g transform="translate(148.191832, 220.555895)"><g/></g></g><g fill="#939090" fill-opacity="1"><g transform="translate(169.563252, 220.555895)"><g/></g></g><g fill="#939090" fill-opacity="1"><g transform="translate(190.934671, 220.555895)"><g/></g></g><g fill="#ffffff" fill-opacity="1"><g transform="translate(212.315631, 220.555895)"><g><path d="M 9.40625 -6.34375 C 9.40625 -4.707031 9.878906 -3.375 10.828125 -2.34375 C 11.785156 -1.320312 13.015625 -0.539062 14.515625 0 L 3.6875 0 C 5.1875 -0.539062 6.394531 -1.320312 7.3125 -2.34375 C 8.226562 -3.375 8.6875 -4.707031 8.6875 -6.34375 L 8.6875 -43.5625 C 8.6875 -46.832031 7.019531 -49.015625 3.6875 -50.109375 L 12.78125 -50.109375 L 41.515625 -9.71875 L 41.515625 -43.765625 C 41.515625 -45.398438 41.054688 -46.726562 40.140625 -47.75 C 39.222656 -48.78125 38.015625 -49.566406 36.515625 -50.109375 L 47.25 -50.109375 C 45.8125 -49.566406 44.632812 -48.765625 43.71875 -47.703125 C 42.800781 -46.648438 42.34375 -45.335938 42.34375 -43.765625 L 42.34375 0 L 9.40625 -46.328125 Z M 9.40625 -6.34375 "/></g></g></g><g fill="#af0606" fill-opacity="1"><g transform="translate(263.036596, 220.555895)"><g><path d="M 9.40625 -6.34375 C 9.40625 -4.707031 9.878906 -3.375 10.828125 -2.34375 C 11.785156 -1.320312 13.015625 -0.539062 14.515625 0 L 3.6875 0 C 5.1875 -0.539062 6.394531 -1.320312 7.3125 -2.34375 C 8.226562 -3.375 8.6875 -4.707031 8.6875 -6.34375 L 8.6875 -43.5625 C 8.6875 -46.832031 7.019531 -49.015625 3.6875 -50.109375 L 12.78125 -50.109375 L 41.515625 -9.71875 L 41.515625 -43.765625 C 41.515625 -45.398438 41.054688 -46.726562 40.140625 -47.75 C 39.222656 -48.78125 38.015625 -49.566406 36.515625 -50.109375 L 47.25 -50.109375 C 45.8125 -49.566406 44.632812 -48.765625 43.71875 -47.703125 C 42.800781 -46.648438 42.34375 -45.335938 42.34375 -43.765625 L 42.34375 0 L 9.40625 -46.328125 Z M 9.40625 -6.34375 "/></g></g></g><g fill="#af0606" fill-opacity="1"><g transform="translate(313.755385, 220.555895)"><g><path d="M 10.125 -4.609375 C 10.125 -3.304688 10.5 -2.296875 11.25 -1.578125 C 12 -0.867188 12.953125 -0.34375 14.109375 0 L 3.6875 0 C 4.84375 -0.40625 5.894531 -1.117188 6.84375 -2.140625 C 7.800781 -3.171875 8.519531 -4.265625 9 -5.421875 L 26.28125 -50.71875 L 43.359375 -5.625 C 43.835938 -4.46875 44.453125 -3.34375 45.203125 -2.25 C 45.953125 -1.15625 46.972656 -0.40625 48.265625 0 L 35.6875 0 C 36.507812 -0.34375 37.175781 -0.90625 37.6875 -1.6875 C 38.195312 -2.46875 38.453125 -3.300781 38.453125 -4.1875 C 38.453125 -4.738281 38.210938 -5.726562 37.734375 -7.15625 C 37.253906 -8.59375 36.707031 -10.128906 36.09375 -11.765625 C 35.476562 -13.398438 34.863281 -14.96875 34.25 -16.46875 C 33.644531 -17.96875 33.203125 -19.054688 32.921875 -19.734375 L 15.4375 -19.734375 C 15.101562 -18.847656 14.644531 -17.707031 14.0625 -16.3125 C 13.476562 -14.914062 12.894531 -13.5 12.3125 -12.0625 C 11.738281 -10.632812 11.226562 -9.253906 10.78125 -7.921875 C 10.34375 -6.597656 10.125 -5.492188 10.125 -4.609375 Z M 15.640625 -20.453125 L 32.515625 -20.453125 L 24.140625 -42.84375 Z M 15.640625 -20.453125 "/></g></g></g><g fill="#939090" fill-opacity="1"><g transform="translate(365.602214, 220.555895)"><g/></g></g><path fill="#ffffff" d="M 127.675781 182.914062 C 127.675781 182.914062 128.886719 186.699219 128.128906 188.363281 C 127.375 190.027344 191.074219 189.269531 191.074219 189.269531 C 191.074219 189.269531 190.773438 185.035156 191.378906 183.972656 C 191.984375 182.914062 191.527344 183.21875 191.527344 183.21875 L 127.679688 182.914062 Z M 127.675781 182.914062 " fill-opacity="1" fill-rule="nonzero"/><path fill="#ffffff" d="M 134.636719 176.5625 C 134.636719 176.5625 146.4375 144.183594 146.4375 143.121094 C 146.4375 142.0625 147.949219 142.214844 147.949219 142.214844 L 139.929688 176.714844 Z M 134.636719 176.5625 " fill-opacity="1" fill-rule="nonzero"/><path fill="#ffffff" d="M 144.320312 139.945312 L 146.890625 138.433594 L 173.976562 138.886719 L 176.394531 139.792969 L 176.695312 138.433594 L 174.125 137.523438 L 147.347656 137.222656 L 144.015625 137.976562 Z M 144.320312 139.945312 " fill-opacity="1" fill-rule="nonzero"/><path fill="#ffffff" d="M 148.402344 135.558594 L 151.730469 136.011719 L 158.539062 50.824219 L 157.179688 51.730469 C 157.179688 51.730469 154.605469 84.566406 154.605469 85.925781 C 154.605469 87.289062 148.703125 135.101562 148.402344 135.554688 Z M 148.402344 135.558594 " fill-opacity="1" fill-rule="nonzero"/><path fill="#ffffff" d="M 160.507812 39.097656 L 162.777344 39.25 C 162.777344 39.25 162.324219 28.054688 162.171875 26.996094 C 162.023438 25.9375 161.417969 26.390625 161.417969 26.390625 Z M 160.507812 39.097656 " fill-opacity="1" fill-rule="nonzero"/><path fill="#ffffff" d="M 157.484375 43.257812 C 157.148438 43.570312 160.8125 36.449219 165.5 42.199219 L 165.464844 43.636719 C 165.464844 43.636719 161.796875 39.25 157.484375 43.257812 Z M 157.484375 43.257812 " fill-opacity="1" fill-rule="nonzero"/><path fill="#ffffff" d="M 156.234375 45.417969 L 156.308594 47.457031 L 158.164062 45.871094 L 164.78125 45.871094 L 165.007812 49.5 C 165.007812 49.5 166.257812 47.535156 166.5625 47.308594 C 166.863281 47.082031 166.902344 45.453125 166.902344 45.453125 L 165.425781 44.015625 L 157.824219 44.09375 Z M 156.234375 45.417969 " fill-opacity="1" fill-rule="nonzero"/><path fill="#ffffff" d="M 160.960938 50.824219 L 162.171875 50.523438 C 162.171875 50.523438 161.265625 129.503906 164.441406 135.558594 L 156.273438 135.558594 C 156.273438 135.558594 163.382812 52.339844 160.960938 50.828125 Z M 160.960938 50.824219 " fill-opacity="1" fill-rule="nonzero"/><path fill="#ffffff" d="M 145.984375 176.714844 L 147.953125 176.863281 C 147.953125 176.863281 154.003906 149.628906 153.851562 149.933594 C 153.703125 150.234375 152.339844 149.78125 152.339844 149.78125 C 152.339844 149.78125 146.4375 176.410156 145.984375 176.714844 Z M 145.984375 176.714844 " fill-opacity="1" fill-rule="nonzero"/><path fill="#ffffff" d="M 166.109375 150.386719 C 166.5625 150.386719 167.621094 150.6875 167.621094 150.6875 C 167.621094 150.6875 176.246094 174.445312 176.699219 175.957031 C 177.152344 177.46875 177.152344 177.015625 177.152344 177.015625 L 172.765625 177.167969 Z M 166.109375 150.386719 " fill-opacity="1" fill-rule="nonzero"/><path fill="#ffffff" d="M 174.125 142.820312 C 174.125 143.273438 184.71875 176.714844 184.71875 176.714844 L 182.449219 177.167969 C 182.449219 177.167969 171.402344 143.125 170.949219 143.125 C 170.496094 143.125 174.125 142.820312 174.125 142.820312 Z M 174.125 142.820312 " fill-opacity="1" fill-rule="nonzero"/><path fill="#ffffff" d="M 167.316406 135.558594 L 171.855469 135.558594 C 171.855469 135.558594 164.746094 54.457031 164.746094 53.851562 C 164.746094 53.246094 167.015625 135.101562 167.316406 135.558594 Z M 167.316406 135.558594 " fill-opacity="1" fill-rule="nonzero"/><path fill="#ffffff" d="M 145.605469 140.402344 C 145.605469 140.402344 146.210938 141.082031 146.132812 141.460938 C 146.058594 141.839844 174.355469 141.914062 174.355469 141.914062 C 174.355469 141.914062 174.65625 141.082031 174.882812 140.929688 C 175.109375 140.777344 145.605469 140.402344 145.605469 140.402344 Z M 145.605469 140.402344 " fill-opacity="1" fill-rule="nonzero"/><path fill="#ffffff" d="M 128.054688 177.089844 C 128.28125 177.089844 191.449219 177.546875 191.449219 177.546875 C 191.449219 177.546875 190.847656 178.527344 190.847656 179.132812 C 190.847656 179.738281 129.867188 178.984375 129.640625 179.4375 C 129.414062 179.890625 128.054688 177.089844 128.054688 177.089844 Z M 128.054688 177.089844 " fill-opacity="1" fill-rule="nonzero"/><g clip-path="url(#479d2d38da)"><path fill="#ffffff" d="M 127.445312 189.878906 C 127.371094 190.105469 110.804688 214.164062 110.804688 214.164062 C 110.804688 214.164062 112.695312 215.902344 112.921875 215.828125 C 113.148438 215.75 124.269531 197.820312 124.800781 197.746094 C 125.328125 197.667969 128.65625 191.390625 128.429688 191.011719 C 128.203125 190.632812 127.445312 189.878906 127.445312 189.878906 Z M 127.445312 189.878906 " fill-opacity="1" fill-rule="nonzero"/></g><g clip-path="url(#23ab70c4a8)"><path fill="#ffffff" d="M 192.433594 191.390625 C 192.433594 191.390625 208.019531 214.84375 208.171875 215.296875 C 208.324219 215.75 204.691406 217.488281 204.691406 217.488281 L 191.601562 191.617188 Z M 192.433594 191.390625 " fill-opacity="1" fill-rule="nonzero"/></g><path fill="#ffffff" d="M 128.449219 198.160156 C 128.164062 198.558594 126.519531 201.339844 126.519531 201.339844 L 124.933594 198.84375 Z M 128.449219 198.160156 " fill-opacity="1" fill-rule="nonzero"/><path fill="#ffffff" d="M 120.167969 206.5 C 120.335938 206.445312 122.945312 206.558594 122.945312 206.558594 L 124.761719 203.4375 Z M 120.167969 206.5 " fill-opacity="1" fill-rule="nonzero"/><path fill="#ffffff" d="M 119.085938 207.976562 L 121.867188 208.203125 L 119.769531 211.097656 L 118.972656 208.148438 C 118.972656 208.148438 119.144531 207.863281 119.085938 207.976562 Z M 119.085938 207.976562 " fill-opacity="1" fill-rule="nonzero"/><path fill="#ffffff" d="M 130.265625 205.992188 L 132.25 203.15625 L 128.054688 202.757812 Z M 130.265625 205.992188 " fill-opacity="1" fill-rule="nonzero"/><path fill="#ffffff" d="M 129.1875 201.453125 L 133.273438 201.679688 L 134.859375 198.785156 Z M 129.1875 201.453125 " fill-opacity="1" fill-rule="nonzero"/><path fill="#ffffff" d="M 130.097656 197.765625 L 127.65625 200.828125 L 133.671875 198.21875 Z M 130.097656 197.765625 " fill-opacity="1" fill-rule="nonzero"/><path fill="#ffffff" d="M 128.902344 208.769531 L 126.863281 211.722656 L 121.757812 211.835938 Z M 128.902344 208.769531 " fill-opacity="1" fill-rule="nonzero"/><path fill="#ffffff" d="M 125.953125 213.199219 L 123.796875 216.203125 L 121.414062 213.082031 Z M 125.953125 213.199219 " fill-opacity="1" fill-rule="nonzero"/><path fill="#ffffff" d="M 119.996094 213.539062 L 122.378906 216.714844 L 115.457031 215.46875 Z M 119.996094 213.539062 " fill-opacity="1" fill-rule="nonzero"/><path fill="#ffffff" d="M 117.613281 210.132812 L 114.773438 214.046875 L 118.917969 212.007812 Z M 117.613281 210.132812 " fill-opacity="1" fill-rule="nonzero"/><path fill="#ffffff" d="M 126.691406 203.664062 L 124.535156 206.558594 L 128.789062 206.558594 Z M 126.691406 203.664062 " fill-opacity="1" fill-rule="nonzero"/><path fill="#ffffff" d="M 148.789062 144.96875 C 148.988281 145.195312 149.785156 146.328125 149.785156 146.328125 L 150.097656 143.890625 Z M 148.789062 144.96875 " fill-opacity="1" fill-rule="nonzero"/><path fill="#ffffff" d="M 147.457031 143.066406 L 148.507812 144.398438 L 150.011719 142.980469 L 147.402344 142.5 C 147.402344 142.5 146.324219 146.8125 146.40625 146.839844 C 146.492188 146.867188 149.046875 146.925781 149.046875 146.925781 L 148.222656 145.394531 L 146.890625 145.960938 Z M 147.457031 143.066406 " fill-opacity="1" fill-rule="nonzero"/><path fill="#ffffff" d="M 151.628906 142.808594 L 154.152344 142.980469 L 152.734375 144.398438 Z M 151.628906 142.808594 " fill-opacity="1" fill-rule="nonzero"/><path fill="#ffffff" d="M 152.480469 145.28125 L 150.863281 146.839844 L 153.191406 146.839844 Z M 152.480469 145.28125 " fill-opacity="1" fill-rule="nonzero"/><path fill="#ffffff" d="M 150.804688 143.492188 L 150.523438 146.214844 L 151.996094 144.96875 Z M 150.804688 143.492188 " fill-opacity="1" fill-rule="nonzero"/><path fill="#ffffff" d="M 154.351562 143.832031 C 154.351562 143.917969 154.125 146.160156 154.125 146.160156 L 153.105469 144.96875 Z M 154.351562 143.832031 " fill-opacity="1" fill-rule="nonzero"/><path fill="#ffffff" d="M 155.460938 143.632812 L 154.976562 146.328125 L 156.820312 145.050781 Z M 155.460938 143.632812 " fill-opacity="1" fill-rule="nonzero"/><path fill="#ffffff" d="M 156.082031 142.953125 L 159.402344 143.039062 L 157.640625 144.570312 Z M 156.082031 142.953125 " fill-opacity="1" fill-rule="nonzero"/><path fill="#ffffff" d="M 157.414062 145.308594 C 157.300781 145.394531 155.542969 146.8125 155.542969 146.8125 L 159.117188 146.953125 L 157.414062 145.222656 Z M 157.414062 145.308594 " fill-opacity="1" fill-rule="nonzero"/><path fill="#ffffff" d="M 158.210938 144.910156 L 159.828125 146.585938 L 159.96875 143.320312 Z M 158.210938 144.910156 " fill-opacity="1" fill-rule="nonzero"/><path fill="#ffffff" d="M 160.59375 143.464844 L 160.507812 146.726562 L 162.179688 145.164062 Z M 160.59375 143.464844 " fill-opacity="1" fill-rule="nonzero"/><path fill="#ffffff" d="M 161.132812 147.09375 L 162.917969 145.535156 L 164.960938 147.066406 Z M 161.132812 147.09375 " fill-opacity="1" fill-rule="nonzero"/><path fill="#ffffff" d="M 165.132812 143.777344 L 165.132812 146.300781 L 163.65625 145.023438 Z M 165.132812 143.777344 " fill-opacity="1" fill-rule="nonzero"/><path fill="#ffffff" d="M 168.140625 150.46875 L 170.949219 152.171875 L 170.921875 150.359375 Z M 168.140625 150.46875 " fill-opacity="1" fill-rule="nonzero"/><path fill="#ffffff" d="M 158.542969 46.742188 L 164.515625 46.703125 L 161.757812 50.105469 Z M 158.542969 46.742188 " fill-opacity="1" fill-rule="nonzero"/><path fill="#ffffff" d="M 166.710938 47.949219 C 166.597656 48.140625 165.046875 50.675781 165.046875 50.675781 L 165.234375 56.425781 L 165.652344 52.832031 L 166.523438 51.65625 Z M 166.710938 47.949219 " fill-opacity="1" fill-rule="nonzero"/><path fill="#ffffff" d="M 156.460938 47.949219 C 156.460938 47.949219 158.046875 49.917969 157.972656 50.257812 C 157.898438 50.597656 156.914062 51.242188 156.914062 51.242188 L 156.347656 51.089844 Z M 156.460938 47.949219 " fill-opacity="1" fill-rule="nonzero"/><path fill="#ffffff" d="M 154.570312 158.820312 C 154.683594 158.820312 165.804688 159.046875 165.804688 159.046875 L 168.339844 176.296875 L 170.910156 176.257812 L 165.878906 157.347656 L 154.496094 158.101562 Z M 154.570312 158.820312 " fill-opacity="1" fill-rule="nonzero"/><path fill="#ffffff" d="M 154.191406 158.140625 C 154.191406 158.253906 152.980469 172.816406 151.390625 176.183594 L 149.878906 176.222656 L 153.8125 158.140625 Z M 154.191406 158.140625 " fill-opacity="1" fill-rule="nonzero"/><path fill="#ffffff" d="M 154.871094 152.996094 L 154.496094 156.4375 L 165.3125 156.667969 L 165.652344 153.375 L 165.351562 153.335938 L 164.859375 155.683594 L 155.78125 155.644531 L 155.441406 153.148438 L 160.960938 153.070312 L 163.117188 153.109375 L 154.832031 152.316406 Z M 154.871094 152.996094 " fill-opacity="1" fill-rule="nonzero"/><path fill="#ffffff" d="M 167.660156 151.480469 C 167.960938 151.59375 171.136719 153.410156 171.136719 153.410156 C 171.136719 153.410156 169.132812 155.226562 169.058594 155.339844 C 168.980469 155.453125 167.660156 151.480469 167.660156 151.480469 Z M 167.660156 151.480469 " fill-opacity="1" fill-rule="nonzero"/><path fill="#ffffff" d="M 168.980469 156.667969 L 171.554688 154.585938 L 172.046875 156.894531 L 168.945312 156.894531 Z M 168.980469 156.667969 " fill-opacity="1" fill-rule="nonzero"/><path fill="#ffffff" d="M 176.960938 170.617188 L 180.085938 172.914062 L 178.070312 173.847656 Z M 176.960938 170.617188 " fill-opacity="1" fill-rule="nonzero"/><path fill="#ffffff" d="M 169.929688 157.816406 C 170.125 157.875 172.28125 157.875 172.28125 157.875 L 172.992188 160.058594 Z M 169.929688 157.816406 " fill-opacity="1" fill-rule="nonzero"/><path fill="#ffffff" d="M 149.132812 153.308594 C 149.160156 153.222656 152.222656 151.460938 152.222656 151.460938 L 151.371094 155.578125 Z M 149.132812 153.308594 " fill-opacity="1" fill-rule="nonzero"/><path fill="#ffffff" d="M 149.472656 150.074219 L 149.046875 152.144531 L 151.941406 150.214844 Z M 149.472656 150.074219 " fill-opacity="1" fill-rule="nonzero"/><path fill="#ffffff" d="M 148.421875 150.359375 L 145.753906 149.957031 L 147.855469 152.144531 Z M 148.421875 150.359375 " fill-opacity="1" fill-rule="nonzero"/><path fill="#ffffff" d="M 145.332031 151.460938 C 145.472656 151.574219 147.402344 153.191406 147.402344 153.191406 L 144.421875 155.09375 Z M 145.332031 151.460938 " fill-opacity="1" fill-rule="nonzero"/><path fill="#ffffff" d="M 148.648438 154.242188 L 147.914062 156.628906 L 151.03125 156.824219 Z M 148.648438 154.242188 " fill-opacity="1" fill-rule="nonzero"/><path fill="#ffffff" d="M 150.523438 158.867188 L 146.949219 161.222656 L 149.5 163.578125 Z M 150.523438 158.867188 " fill-opacity="1" fill-rule="nonzero"/><path fill="#ffffff" d="M 148.878906 166.953125 L 144.621094 169.367188 L 147.628906 172.34375 Z M 148.878906 166.953125 " fill-opacity="1" fill-rule="nonzero"/><path fill="#ffffff" d="M 143.910156 170.671875 C 143.824219 170.785156 141.867188 176.203125 141.867188 176.203125 L 146.152344 173.820312 Z M 143.910156 170.671875 " fill-opacity="1" fill-rule="nonzero"/><path fill="#ffffff" d="M 146.238281 162.359375 L 144.707031 167.746094 L 147.96875 165.960938 L 148.449219 164.261719 Z M 146.238281 162.359375 " fill-opacity="1" fill-rule="nonzero"/><path fill="#ffffff" d="M 147.257812 154.8125 C 147.230469 154.894531 146.777344 156.96875 146.777344 156.96875 L 143.941406 156.570312 Z M 147.257812 154.8125 " fill-opacity="1" fill-rule="nonzero"/><path fill="#ffffff" d="M 141.347656 198.140625 L 140.183594 196.292969 C 140.019531 195.976562 139.6875 195.757812 139.296875 195.757812 C 138.75 195.757812 138.304688 196.1875 138.304688 196.714844 C 138.304688 196.910156 138.367188 197.09375 138.472656 197.246094 C 138.503906 197.289062 138.535156 197.328125 138.574219 197.367188 L 139.796875 199.050781 Z M 141.347656 198.140625 " fill-opacity="1" fill-rule="nonzero"/><path fill="#ffffff" d="M 143.695312 197.125 L 142.71875 195.371094 C 142.585938 195.078125 142.289062 194.855469 141.925781 194.835938 C 141.414062 194.800781 140.976562 195.164062 140.945312 195.644531 C 140.933594 195.824219 140.984375 195.996094 141.074219 196.140625 C 141.097656 196.179688 141.128906 196.21875 141.160156 196.253906 L 142.199219 197.859375 Z M 143.695312 197.125 " fill-opacity="1" fill-rule="nonzero"/><path fill="#ffffff" d="M 144.449219 197.007812 L 146.285156 196.441406 C 146.285156 196.441406 145.527344 194.300781 144.5625 194.871094 C 144.5625 194.871094 143.5625 195.550781 144.429688 196.96875 C 145.300781 198.386719 144.449219 197.007812 144.449219 197.007812 Z M 144.449219 197.007812 " fill-opacity="1" fill-rule="nonzero"/><path fill="#ffffff" d="M 135.203125 201.566406 C 135.199219 201.632812 136.660156 200.65625 136.660156 200.65625 C 136.660156 200.65625 135.242188 200.46875 135.203125 201.566406 Z M 135.203125 201.566406 " fill-opacity="1" fill-rule="nonzero"/><path fill="#ffffff" d="M 137.339844 200.242188 C 137.492188 200.109375 138.910156 199.277344 138.910156 199.277344 L 138.417969 198.480469 C 138.417969 198.480469 136.601562 197.859375 136.773438 199.445312 Z M 137.339844 200.242188 " fill-opacity="1" fill-rule="nonzero"/><path fill="#ffffff" d="M 146.949219 196.234375 L 148.859375 195.890625 L 148.78125 195.363281 C 148.78125 195.363281 147.496094 194.265625 146.890625 195.609375 Z M 146.949219 196.234375 " fill-opacity="1" fill-rule="nonzero"/><path fill="#ffffff" d="M 149.59375 195.644531 L 151.488281 195.304688 C 151.488281 195.304688 150.523438 194.378906 149.59375 195.644531 Z M 149.59375 195.644531 " fill-opacity="1" fill-rule="nonzero"/><path fill="#ffffff" d="M 144.09375 157.234375 C 144.472656 157.347656 146.25 157.6875 146.25 157.6875 L 145.71875 159.730469 L 143.640625 157.914062 Z M 144.09375 157.234375 " fill-opacity="1" fill-rule="nonzero"/><path fill="#ffffff" d="M 143.5625 159.164062 C 143.382812 159.695312 145.339844 161.089844 145.339844 161.089844 L 142.765625 162.339844 C 142.765625 162.339844 143.601562 159.050781 143.5625 159.164062 Z M 143.5625 159.164062 " fill-opacity="1" fill-rule="nonzero"/><path fill="#ffffff" d="M 142.125 164.683594 C 142.277344 164.683594 144.394531 164.875 144.394531 164.875 L 144.960938 162.339844 L 142.125 163.929688 L 142.164062 164.535156 L 144.054688 165.859375 L 143.261719 168.203125 L 141.632812 165.667969 L 142.65625 170.433594 L 139.742188 174.066406 Z M 142.125 164.683594 " fill-opacity="1" fill-rule="nonzero"/><path fill="#ffffff" d="M 166.921875 147.152344 L 169.472656 147.039062 L 167.941406 145.675781 Z M 166.921875 147.152344 " fill-opacity="1" fill-rule="nonzero"/><path fill="#ffffff" d="M 127.316406 196.515625 L 136.621094 196.800781 L 140.992188 190.105469 L 135.769531 195.039062 Z M 127.316406 196.515625 " fill-opacity="1" fill-rule="nonzero"/><path fill="#ffffff" d="M 170.4375 195.777344 L 172.308594 196.34375 C 172.308594 196.34375 172.253906 194.246094 170.4375 195.777344 Z M 170.4375 195.777344 " fill-opacity="1" fill-rule="nonzero"/><path fill="#ffffff" d="M 184.167969 199.523438 C 184.28125 199.75 185.644531 202.300781 185.644531 202.300781 L 190.296875 202.132812 L 186.324219 201.394531 Z M 184.167969 199.523438 " fill-opacity="1" fill-rule="nonzero"/><path fill="#ffffff" d="M 186.667969 203.664062 C 186.894531 204.003906 188.480469 206.558594 188.480469 206.558594 L 190.75 203.835938 L 188.480469 204.96875 Z M 186.667969 203.664062 " fill-opacity="1" fill-rule="nonzero"/><path fill="#ffffff" d="M 189.84375 209.171875 C 190.015625 209.453125 191.773438 212.289062 191.773438 212.289062 L 194.382812 212.234375 L 192.113281 211.382812 Z M 189.84375 209.171875 " fill-opacity="1" fill-rule="nonzero"/><path fill="#ffffff" d="M 173.046875 196.742188 L 183.65625 202.417969 C 183.65625 202.417969 174.976562 195.097656 174.066406 195.152344 C 173.160156 195.210938 172.992188 196.402344 172.992188 196.570312 " fill-opacity="1" fill-rule="nonzero"/><path fill="#ffffff" d="M 170.550781 159.75 L 173.21875 161.507812 L 171.570312 163.433594 Z M 170.550781 159.75 " fill-opacity="1" fill-rule="nonzero"/><path fill="#ffffff" d="M 173.671875 162.757812 L 172.027344 165.136719 L 174.46875 166.101562 Z M 173.671875 162.757812 " fill-opacity="1" fill-rule="nonzero"/><path fill="#ffffff" d="M 174.125 169.675781 L 176.453125 172.34375 L 175.261719 173.480469 Z M 174.125 169.675781 " fill-opacity="1" fill-rule="nonzero"/><path fill="#ffffff" d="M 172.425781 145.617188 L 171.402344 146.921875 L 173.105469 147.09375 Z M 172.425781 145.617188 " fill-opacity="1" fill-rule="nonzero"/><path fill="#ffffff" d="M 151.257812 133.476562 C 151.65625 133.816406 152.847656 134.894531 152.847656 134.894531 L 155.96875 131.605469 L 154.492188 129.507812 L 151.203125 131.945312 Z M 151.257812 133.476562 " fill-opacity="1" fill-rule="nonzero"/><path fill="#ffffff" d="M 152.109375 126.953125 C 152.28125 127.234375 153.472656 129.277344 153.472656 129.277344 L 151.375 130.695312 Z M 152.109375 126.953125 " fill-opacity="1" fill-rule="nonzero"/><path fill="#ffffff" d="M 151.996094 123.886719 C 152.167969 124.230469 154.152344 127.007812 154.152344 127.007812 L 156.761719 124.34375 L 154.832031 121.503906 Z M 151.996094 123.886719 " fill-opacity="1" fill-rule="nonzero"/><path fill="#ffffff" d="M 152.335938 122.582031 L 154.039062 120.65625 L 152.335938 118.441406 Z M 152.335938 122.582031 " fill-opacity="1" fill-rule="nonzero"/><path fill="#ffffff" d="M 152.507812 115.945312 L 155.175781 114.074219 L 153.074219 111.519531 Z M 152.507812 115.945312 " fill-opacity="1" fill-rule="nonzero"/><path fill="#ffffff" d="M 153.472656 105.617188 L 152.847656 109.53125 L 155.855469 107.492188 Z M 153.472656 105.617188 " fill-opacity="1" fill-rule="nonzero"/><path fill="#ffffff" d="M 153.585938 103.460938 L 156.480469 101.136719 L 154.097656 98.695312 L 153.472656 103.746094 Z M 153.585938 103.460938 " fill-opacity="1" fill-rule="nonzero"/><path fill="#ffffff" d="M 154.210938 97.164062 L 154.265625 97.445312 L 157.273438 95.121094 L 154.496094 92.679688 Z M 154.210938 97.164062 " fill-opacity="1" fill-rule="nonzero"/><path fill="#ffffff" d="M 155.117188 86.609375 L 154.605469 91.492188 L 157.273438 89.558594 Z M 155.117188 86.609375 " fill-opacity="1" fill-rule="nonzero"/><path fill="#ffffff" d="M 155.34375 85.984375 L 157.613281 84.054688 L 155.460938 81.902344 Z M 155.34375 85.984375 " fill-opacity="1" fill-rule="nonzero"/><path fill="#ffffff" d="M 155.742188 80.992188 L 157.953125 79.460938 L 155.910156 77.191406 Z M 155.742188 80.992188 " fill-opacity="1" fill-rule="nonzero"/><path fill="#ffffff" d="M 156.027344 76.511719 L 158.238281 74.753906 L 156.253906 72.425781 Z M 156.027344 76.511719 " fill-opacity="1" fill-rule="nonzero"/><path fill="#ffffff" d="M 156.367188 71.972656 L 158.238281 70.722656 L 156.648438 68.453125 Z M 156.367188 71.972656 " fill-opacity="1" fill-rule="nonzero"/><path fill="#ffffff" d="M 156.820312 67.828125 L 158.636719 66.410156 L 157.160156 65.050781 Z M 156.820312 67.828125 " fill-opacity="1" fill-rule="nonzero"/><path fill="#ffffff" d="M 157.105469 64.195312 L 158.695312 63.003906 C 158.695312 63.003906 157.503906 61.1875 157.503906 61.414062 C 157.503906 61.644531 157.105469 64.195312 157.105469 64.195312 Z M 157.105469 64.195312 " fill-opacity="1" fill-rule="nonzero"/><path fill="#ffffff" d="M 157.273438 60.511719 L 159.035156 59.601562 L 157.5 57.84375 Z M 157.273438 60.511719 " fill-opacity="1" fill-rule="nonzero"/><path fill="#ffffff" d="M 157.785156 57.503906 L 159.203125 56.425781 L 157.785156 54.890625 Z M 157.785156 57.503906 " fill-opacity="1" fill-rule="nonzero"/><path fill="#ffffff" d="M 158.125 54.269531 L 159.144531 53.644531 L 158.40625 52.394531 Z M 158.125 54.269531 " fill-opacity="1" fill-rule="nonzero"/><path fill="#ffffff" d="M 153.847656 118.460938 C 154.078125 118.613281 154.832031 120.199219 154.832031 120.199219 L 157.253906 117.402344 L 155.210938 117.25 L 154 115.660156 Z M 153.847656 118.460938 " fill-opacity="1" fill-rule="nonzero"/><path fill="#ffffff" d="M 154.304688 111.5 L 155.667969 113.164062 L 157.484375 111.574219 L 155.96875 111.421875 L 154.683594 109.378906 L 154.152344 109.53125 Z M 154.304688 111.5 " fill-opacity="1" fill-rule="nonzero"/><path fill="#ffffff" d="M 154.757812 105.222656 L 156.347656 106.734375 L 157.859375 104.992188 L 156.042969 104.839844 L 155.515625 102.722656 L 154.757812 103.179688 Z M 154.757812 105.222656 " fill-opacity="1" fill-rule="nonzero"/><path fill="#ffffff" d="M 155.363281 98.714844 L 157.179688 100.53125 L 158.238281 99.925781 L 156.726562 98.867188 L 157.859375 95.914062 L 155.289062 97.808594 Z M 155.363281 98.714844 " fill-opacity="1" fill-rule="nonzero"/><path fill="#ffffff" d="M 157.558594 94.402344 L 155.667969 93.039062 L 155.742188 91.980469 L 158.011719 90.089844 L 157.257812 92.058594 Z M 157.558594 94.402344 " fill-opacity="1" fill-rule="nonzero"/><g clip-path="url(#97c2bc2337)"><path fill="#ffffff" d="M 197.890625 223.46875 C 158.59375 158.332031 120.226562 223.464844 120.789062 222.789062 C 160.125 175.550781 184.820312 207.910156 193.410156 223.46875 Z M 197.890625 223.46875 " fill-opacity="1" fill-rule="nonzero"/></g><g fill="#ffffff" fill-opacity="1"><g transform="translate(87.960454, 250.661166)"><g/></g></g><g fill="#ffffff" fill-opacity="1"><g transform="translate(107.701112, 250.661166)"><g><path d="M 1.984375 -19.15625 L 9.859375 -19.15625 C 11.253906 -19.15625 12.429688 -18.960938 13.390625 -18.578125 C 14.347656 -18.203125 15.117188 -17.691406 15.703125 -17.046875 C 16.285156 -16.398438 16.707031 -15.664062 16.96875 -14.84375 C 17.226562 -14.019531 17.359375 -13.15625 17.359375 -12.25 C 17.359375 -10.507812 17.007812 -9.097656 16.3125 -8.015625 C 15.613281 -6.941406 14.644531 -6.15625 13.40625 -5.65625 C 12.164062 -5.164062 10.734375 -4.921875 9.109375 -4.921875 L 5.875 -4.921875 L 5.875 0 L 1.984375 0 Z M 5.875 -8.15625 L 8.71875 -8.15625 C 10.28125 -8.15625 11.429688 -8.503906 12.171875 -9.203125 C 12.910156 -9.910156 13.28125 -10.828125 13.28125 -11.953125 C 13.28125 -12.628906 13.15625 -13.253906 12.90625 -13.828125 C 12.65625 -14.410156 12.234375 -14.878906 11.640625 -15.234375 C 11.054688 -15.597656 10.253906 -15.78125 9.234375 -15.78125 L 5.875 -15.78125 Z M 5.875 -8.15625 "/></g></g></g><g fill="#ffffff" fill-opacity="1"><g transform="translate(142.288416, 250.661166)"><g><path d="M 14.703125 -3.890625 L 6.140625 -3.890625 L 4.421875 0 L 0.328125 0 L 9.453125 -19.15625 L 11.390625 -19.15625 L 20.546875 0 L 16.4375 0 Z M 7.53125 -7.125 L 13.3125 -7.125 L 10.40625 -13.453125 Z M 7.53125 -7.125 "/></g></g></g><g fill="#ffffff" fill-opacity="1"><g transform="translate(179.61989, 250.661166)"><g><path d="M 13.859375 0 L 10.15625 -4.9375 C 10.050781 -4.925781 9.9375 -4.921875 9.8125 -4.921875 C 9.6875 -4.921875 9.554688 -4.921875 9.421875 -4.921875 L 5.875 -4.921875 L 5.875 0 L 1.984375 0 L 1.984375 -19.15625 L 10.4375 -19.15625 C 11.832031 -19.15625 13.007812 -18.960938 13.96875 -18.578125 C 14.925781 -18.203125 15.691406 -17.691406 16.265625 -17.046875 C 16.847656 -16.398438 17.269531 -15.664062 17.53125 -14.84375 C 17.800781 -14.019531 17.9375 -13.15625 17.9375 -12.25 C 17.9375 -10.601562 17.601562 -9.234375 16.9375 -8.140625 C 16.28125 -7.054688 15.316406 -6.242188 14.046875 -5.703125 L 18.5 0 Z M 5.875 -8.125 L 9.296875 -8.125 C 10.847656 -8.125 11.992188 -8.476562 12.734375 -9.1875 C 13.484375 -9.90625 13.859375 -10.828125 13.859375 -11.953125 C 13.859375 -12.628906 13.726562 -13.253906 13.46875 -13.828125 C 13.21875 -14.410156 12.796875 -14.878906 12.203125 -15.234375 C 11.617188 -15.597656 10.820312 -15.78125 9.8125 -15.78125 L 5.875 -15.78125 Z M 5.875 -8.125 "/></g></g></g><g fill="#ffffff" fill-opacity="1"><g transform="translate(215.185319, 250.661166)"><g><path d="M 5.984375 0 L 2.0625 0 L 2.0625 -19.15625 L 5.984375 -19.15625 Z M 5.984375 0 "/></g></g></g><g fill="#ffffff" fill-opacity="1"><g transform="translate(239.665418, 250.661166)"><g><path d="M 9.515625 -11.359375 C 10.890625 -11.046875 12.097656 -10.664062 13.140625 -10.21875 C 14.179688 -9.78125 14.992188 -9.195312 15.578125 -8.46875 C 16.171875 -7.75 16.46875 -6.800781 16.46875 -5.625 C 16.46875 -4.394531 16.160156 -3.335938 15.546875 -2.453125 C 14.929688 -1.578125 14.066406 -0.90625 12.953125 -0.4375 C 11.835938 0.0195312 10.535156 0.25 9.046875 0.25 C 7.960938 0.25 7.007812 0.203125 6.1875 0.109375 C 5.375 0.015625 4.570312 -0.160156 3.78125 -0.421875 C 3 -0.679688 2.101562 -1.066406 1.09375 -1.578125 L 2.5 -4.59375 C 3.351562 -4.195312 4.128906 -3.890625 4.828125 -3.671875 C 5.535156 -3.453125 6.238281 -3.304688 6.9375 -3.234375 C 7.632812 -3.160156 8.382812 -3.125 9.1875 -3.125 C 10.238281 -3.125 11.054688 -3.304688 11.640625 -3.671875 C 12.234375 -4.046875 12.53125 -4.585938 12.53125 -5.296875 C 12.53125 -5.953125 12.195312 -6.457031 11.53125 -6.8125 C 10.875 -7.164062 9.847656 -7.503906 8.453125 -7.828125 C 7.148438 -8.128906 5.957031 -8.484375 4.875 -8.890625 C 3.800781 -9.304688 2.941406 -9.882812 2.296875 -10.625 C 1.648438 -11.363281 1.328125 -12.359375 1.328125 -13.609375 C 1.328125 -14.734375 1.613281 -15.726562 2.1875 -16.59375 C 2.757812 -17.46875 3.570312 -18.148438 4.625 -18.640625 C 5.6875 -19.128906 6.941406 -19.375 8.390625 -19.375 C 9.835938 -19.375 11.1875 -19.21875 12.4375 -18.90625 C 13.6875 -18.601562 14.785156 -18.242188 15.734375 -17.828125 L 14.15625 -14.734375 C 13.320312 -15.085938 12.363281 -15.382812 11.28125 -15.625 C 10.207031 -15.875 9.21875 -16 8.3125 -16 C 7.332031 -16 6.578125 -15.800781 6.046875 -15.40625 C 5.523438 -15.019531 5.265625 -14.53125 5.265625 -13.9375 C 5.265625 -13.269531 5.613281 -12.753906 6.3125 -12.390625 C 7.007812 -12.023438 8.078125 -11.679688 9.515625 -11.359375 Z M 9.515625 -11.359375 "/></g></g></g></svg>